<?xml version="1.0" standalone="no"?><!DOCTYPE svg PUBLIC "-//W3C//DTD SVG 1.1//EN" "http://www.w3.org/Graphics/SVG/1.1/DTD/svg11.dtd"><svg class="icon" width="200px" height="200.00px" viewBox="0 0 1024 1024" version="1.1" xmlns="http://www.w3.org/2000/svg"><path d="M890.4 959.6H132.9l102.6-185.7h552.3z" fill="#E5ECFF" /><path d="M787.5 599.9c42.2-56 67.2-125.7 67.2-201.3 0-185-150-335-335-335s-335 150-335 335c0 75.6 25 145.3 67.2 201.3l-0.5 0.5 4.2 4.2c16.9 21.6 36.4 41.1 58 58L501 870.8l18.7-2.1 206-206c21.6-16.9 41.1-36.4 58-58l4.2-4.2-0.4-0.6z" fill="#A4BEFF" /><path d="M763.3 599.9c42.2-56 67.2-125.7 67.2-201.3 0-185-150-335-335-335s-335 150-335 335c0 75.6 25 145.3 67.2 201.3l-0.5 0.5 4.2 4.2c16.9 21.6 36.4 41.1 58 58l206 206 206-206c21.6-16.9 41.1-36.4 58-58l4.2-4.2-0.3-0.5z" fill="#5B79FB" /><path d="M503.6 366.3m-92.8 0a92.8 92.8 0 1 0 185.6 0 92.8 92.8 0 1 0-185.6 0Z" fill="#FFFFFF" /><path d="M778.1 928.3H245.3l16.1-34.3h500.5z" fill="#FF7E71" /></svg>