<?xml version="1.0" standalone="no"?><!DOCTYPE svg PUBLIC "-//W3C//DTD SVG 1.1//EN" "http://www.w3.org/Graphics/SVG/1.1/DTD/svg11.dtd"><svg class="icon" width="200px" height="200.00px" viewBox="0 0 1024 1024" version="1.1" xmlns="http://www.w3.org/2000/svg"><path d="M691.5 513.2m-212.1 0a212.1 212.1 0 1 0 424.2 0 212.1 212.1 0 1 0-424.2 0Z" fill="#106F4F" opacity=".3" /><path d="M794.6 471.9c-11 0-20-9-20-20v-92.8c0-16.9-10.8-31.1-23.5-31.1h-523c-12.7 0-23.5 14.3-23.5 31.1v84.5c0 11-9 20-20 20s-20-9-20-20v-84.5c0-18.4 6.2-35.9 17.5-49.1 12.1-14.2 28.4-22 46-22h523c17.6 0 33.9 7.8 46 22 11.3 13.3 17.5 30.7 17.5 49.1v92.8c0 11-8.9 20-20 20zM751.2 742.8h-523c-35 0-63.5-32-63.5-71.2V587c0-11 9-20 20-20s20 9 20 20v84.5c0 16.9 10.8 31.2 23.5 31.2h523c12.7 0 23.5-14.3 23.5-31.2v-76.2c0-11 9-20 20-20s20 9 20 20v76.2c-0.1 39.3-28.5 71.3-63.5 71.3z" fill="#F75C3E" /><path d="M561.8 501.1H417.5c-11 0-20-9-20-20s9-20 20-20h144.3c11 0 20 9 20 20s-9 20-20 20zM561.8 564.7H417.5c-11 0-20-9-20-20s9-20 20-20h144.3c11 0 20 9 20 20s-9 20-20 20z" fill="#F75C3E" /><path d="M489.6 658.1c-11 0-20-9-20-20v-157c0-11 9-20 20-20s20 9 20 20v157c0 11.1-8.9 20-20 20z" fill="#F75C3E" /><path d="M478 487.8c-7.4 0-14.5-4.1-18-11.2l-28.9-58.9c-4.9-9.9-0.8-21.9 9.2-26.8 9.9-4.9 21.9-0.8 26.8 9.2L496 459c4.9 9.9 0.8 21.9-9.2 26.8-2.8 1.3-5.8 2-8.8 2z" fill="#F75C3E" /><path d="M500 487.8c-3 0-6-0.7-8.8-2-9.9-4.9-14-16.8-9.2-26.8l28.9-58.9c4.9-9.9 16.8-14 26.8-9.2 9.9 4.9 14 16.8 9.2 26.8L518 476.6c-3.5 7.1-10.6 11.2-18 11.2zM184.6 607c-4.8 0-9.7-1.7-13.5-5.3-8.1-7.5-8.7-20.1-1.2-28.3l53.4-58.2-53.4-58.2c-7.5-8.1-6.9-20.8 1.2-28.3s20.8-6.9 28.3 1.2l54.6 59.4c13.2 14.2 13.2 37.4-0.1 51.7l-54.5 59.4c-4 4.4-9.4 6.6-14.8 6.6z m39.9-90.5c0 0.1 0 0.1 0 0z m0-2.4zM794.6 615.3c-5.4 0-10.8-2.2-14.7-6.5l-54.6-59.4s0-0.1-0.1-0.1c-13-14.3-13-37.5 0.1-51.6l54.5-59.4c7.5-8.1 20.1-8.7 28.3-1.2 8.1 7.5 8.7 20.1 1.2 28.3l-53.4 58.2 53.4 58.2c7.5 8.1 6.9 20.8-1.2 28.3-3.8 3.5-8.6 5.2-13.5 5.2z m-39.8-90.5z" fill="#F75C3E" /></svg>